<svg xmlns="http://www.w3.org/2000/svg" viewBox="0 0 209.12 117.43"><defs><style>.cls-1{font-size:49.73px;fill:#1d1d1b;font-family:Grafic;}.cls-2{letter-spacing:-0.04em;}.cls-3{letter-spacing:-0.02em;}.cls-4{fill:#36a9e1;}.cls-5{fill:#009fe3;}</style></defs><g id="Layer_2" data-name="Layer 2"><g id="Layer_1-2" data-name="Layer 1"><text class="cls-1" transform="translate(19.67 71.4)">n<tspan class="cls-2" x="25.76" y="0">f</tspan><tspan x="40.13" y="0">o</tspan></text><text class="cls-1" transform="translate(19.7 104.7)">nsu<tspan class="cls-3" x="72.7" y="0">r</tspan><tspan x="93.29" y="0">ance</tspan></text><path class="cls-4" d="M9.4,18.94a9,9,0,0,1-6.68-2.79A9.29,9.29,0,0,1,0,9.4,9.12,9.12,0,0,1,2.72,2.79,9,9,0,0,1,9.4,0a9,9,0,0,1,6.68,2.79A9.16,9.16,0,0,1,18.8,9.4a9.33,9.33,0,0,1-2.72,6.75A9,9,0,0,1,9.4,18.94Zm5.43,16.89a2.11,2.11,0,0,1,1.54.66A2.3,2.3,0,0,1,17,38.18V102.5a2.26,2.26,0,0,1-2.2,2.2H4A2.12,2.12,0,0,1,2.42,104a2.12,2.12,0,0,1-.66-1.54V38.18a2.3,2.3,0,0,1,.66-1.69A2.12,2.12,0,0,1,4,35.83Z"/><path class="cls-5" d="M121.11,73.17a5.63,5.63,0,0,1-2.28-.46,5.86,5.86,0,0,1-3.58-5.42,5.63,5.63,0,0,1,.46-2.28A5.74,5.74,0,0,1,117,63.14a5.93,5.93,0,0,1,1.87-1.26,5.48,5.48,0,0,1,2.28-.47,5.42,5.42,0,0,1,2.26.47,6,6,0,0,1,1.86,1.26A5.93,5.93,0,0,1,126.49,65a5.48,5.48,0,0,1,.47,2.28,5.57,5.57,0,0,1-.47,2.3,5.93,5.93,0,0,1-1.26,1.87,5.8,5.8,0,0,1-1.86,1.25A5.57,5.57,0,0,1,121.11,73.17Zm0-9.35a3.44,3.44,0,0,0-1.36.27,3.62,3.62,0,0,0-1.11.75,3.49,3.49,0,0,0-.74,1.1,3.57,3.57,0,0,0-.26,1.35,3.66,3.66,0,0,0,.26,1.36,3.43,3.43,0,0,0,.74,1.11,3.25,3.25,0,0,0,1.11.73,3.44,3.44,0,0,0,1.36.27,3.49,3.49,0,0,0,2.45-1,3.25,3.25,0,0,0,.73-1.11,3.47,3.47,0,0,0,.27-1.36,3.39,3.39,0,0,0-.27-1.35,3.31,3.31,0,0,0-.73-1.1,3.83,3.83,0,0,0-1.1-.75A3.39,3.39,0,0,0,121.13,63.82Z"/><path class="cls-5" d="M169.54,72.71a5.8,5.8,0,0,1-1.86-1.25,5.93,5.93,0,0,1-1.26-1.87,5.57,5.57,0,0,1-.47-2.3,5.48,5.48,0,0,1,.47-2.28,5.93,5.93,0,0,1,1.26-1.87,6,6,0,0,1,1.86-1.26,5.42,5.42,0,0,1,2.26-.47,5.48,5.48,0,0,1,2.28.47A5.93,5.93,0,0,1,176,63.14,5.74,5.74,0,0,1,177.2,65a5.63,5.63,0,0,1,.46,2.28,5.82,5.82,0,0,1-3.58,5.42,5.63,5.63,0,0,1-2.28.46A5.57,5.57,0,0,1,169.54,72.71Zm.89-8.62a3.83,3.83,0,0,0-1.1.75,3.47,3.47,0,0,0-.73,1.1,3.39,3.39,0,0,0-.27,1.35,3.47,3.47,0,0,0,.27,1.36,3.43,3.43,0,0,0,3.18,2.11,3.44,3.44,0,0,0,1.36-.27,3.25,3.25,0,0,0,1.11-.73,3.43,3.43,0,0,0,.74-1.11,3.66,3.66,0,0,0,.26-1.36,3.57,3.57,0,0,0-.26-1.35,3.49,3.49,0,0,0-.74-1.1,3.62,3.62,0,0,0-1.11-.75,3.44,3.44,0,0,0-1.36-.27A3.39,3.39,0,0,0,170.43,64.09Z"/><path class="cls-5" d="M105.61,65c4.35-10.21,17.23-10,26-13.84,4-1.61,6-4.9,10.21-6.65a18.09,18.09,0,0,1,6.64-.78c5,0,10.1-.1,15.1-.09a8.29,8.29,0,0,1,4.11.88c1.93,1.18,3,2.76,4.83,4a23.57,23.57,0,0,0,7.32,3.64,18.15,18.15,0,0,1,3.26,1c3.48,2,3.52,9.56,2.32,12.88l-.49-.07c-.21-3.41-1-7-3.15-9.59-.73-.18-1.93-.17-2.79-.34a24.17,24.17,0,0,1-13.13-6.41c-1-1.15-2.49-.73-5.46-1q-6-.47-12-.86A15.1,15.1,0,0,0,143,48c-3.37,1.22-6.62,4.78-10.32,5.88-9,3.47-21.33,1.83-26.61,11.39l-.46-.2Z"/></g></g></svg>